<svg xmlns="http://www.w3.org/2000/svg" viewBox="0 0 64 64">
  <defs>
    <linearGradient id="crestGold" x1="0" y1="0" x2="1" y2="1">
      <stop offset="0%" stop-color="#FCD34D"/>
      <stop offset="50%" stop-color="#F59E0B"/>
      <stop offset="100%" stop-color="#D97706"/>
    </linearGradient>
    <linearGradient id="crestBg" x1="0" y1="0" x2="0" y2="1">
      <stop offset="0%" stop-color="#1E293B"/>
      <stop offset="100%" stop-color="#0F172A"/>
    </linearGradient>
  </defs>
  <!-- Background Circle -->
  <circle cx="32" cy="32" r="30" fill="url(#crestBg)" stroke="url(#crestGold)" stroke-width="2.5"/>
  <circle cx="32" cy="32" r="26" fill="none" stroke="#FBBF24" stroke-opacity="0.4" stroke-dasharray="2 2" stroke-width="1"/>
  
  <!-- Crown / Star Top Motif -->
  <path d="M32 10 L34.5 16 L40 16 L35.5 19.5 L37 25 L32 21.5 L27 25 L28.5 19.5 L24 16 L29.5 16 Z" fill="url(#crestGold)"/>
  
  <!-- Shield Emblem -->
  <path d="M22 28 C22 28, 32 26, 42 28 C42 38, 38 46, 32 52 C26 46, 22 38, 22 28 Z" fill="none" stroke="url(#crestGold)" stroke-width="2.2" stroke-linejoin="round"/>
  <path d="M32 27 V51" stroke="url(#crestGold)" stroke-width="1.5"/>
  <path d="M24 36 H40" stroke="url(#crestGold)" stroke-width="1.5"/>

  <!-- Center Glory Rays -->
  <circle cx="32" cy="36" r="3" fill="#FBBF24"/>
</svg>
